<?xml version="1.0" standalone="no"?>
<!DOCTYPE svg PUBLIC "-//W3C//DTD SVG 20010904//EN"
 "http://www.w3.org/TR/2001/REC-SVG-20010904/DTD/svg10.dtd">
<svg version="1.0" xmlns="http://www.w3.org/2000/svg"
 width="1024.000000pt" height="1024.000000pt" viewBox="0 0 1024.000000 1024.000000"
 preserveAspectRatio="xMidYMid meet">
<metadata>
Created by potrace 1.14, written by Peter Selinger 2001-2017
</metadata>
<g transform="translate(0.000000,1024.000000) scale(0.100000,-0.100000)"
fill="#000000" stroke="none">
<path d="M3580 8029 c-176 -12 -341 -60 -545 -159 -214 -104 -347 -199 -514
-370 -231 -236 -382 -494 -470 -805 -54 -191 -56 -252 -56 -1470 1 -1430 4
-1478 106 -1772 166 -474 487 -833 942 -1052 203 -98 389 -157 542 -171 109
-10 853 -10 942 0 145 17 340 82 484 161 40 21 74 39 76 39 2 0 56 -25 119
-55 146 -70 195 -89 314 -122 l95 -26 490 -3 c270 -1 529 2 577 7 94 10 276
61 398 111 285 117 506 279 731 538 220 252 391 663 408 980 9 157 6 2555 -3
2630 -25 206 -144 521 -272 722 -251 393 -647 673 -1126 794 l-96 24 -529 -1
c-304 0 -555 -5 -592 -11 -92 -14 -248 -70 -377 -134 l-111 -55 -102 50 c-129
64 -265 115 -356 134 -47 10 -143 15 -290 17 -533 5 -696 5 -785 -1z"/>
</g>
</svg>
